<svg width="96" height="96" viewBox="0 0 96 96" fill="none" xmlns="http://www.w3.org/2000/svg">
<g clip-path="url(#clip0_1_12)">
<path d="M40 16C57.64 16 72 30.36 72 48C72 65.64 57.64 80 40 80C38.64 80 37.28 79.92 35.96 79.72C43.6 71.08 48 59.8 48 48C48 36.2 43.6 24.92 35.96 16.28C37.28 16.08 38.64 16 40 16ZM40 8C32.72 8 25.88 10 20 13.4C31.96 20.32 40 33.2 40 48C40 62.8 31.96 75.68 20 82.6C25.88 86 32.72 88 40 88C62.08 88 80 70.08 80 48C80 25.92 62.08 8 40 8Z" fill="currentColor"/>
</g>
<defs>
<clipPath id="clip0_1_12">
<rect width="96" height="96" fill="white"/>
</clipPath>
</defs>
</svg>
