<svg width="75" height="75" viewBox="0 0 75 75" fill="none" xmlns="http://www.w3.org/2000/svg">
<path d="M37.2112 61.7368C23.6799 61.7368 12.6857 50.7426 12.6857 37.2112C12.6857 23.6799 23.6799 12.6856 37.2112 12.6856C50.7426 12.6856 61.7368 23.6799 61.7368 37.2112C61.7368 50.7426 50.7426 61.7368 37.2112 61.7368ZM37.2112 17.7599C26.4876 17.7599 17.7599 26.4876 17.7599 37.2112C17.7599 47.9348 26.4876 56.6625 37.2112 56.6625C47.9348 56.6625 56.6626 47.9348 56.6626 37.2112C56.6626 26.4876 47.9348 17.7599 37.2112 17.7599Z" fill="currentColor"/>
<path d="M37.2112 74.2871C35.3507 74.2871 33.8284 72.9002 33.8284 71.0396V70.769C33.8284 68.9084 35.3507 67.3861 37.2112 67.3861C39.0718 67.3861 40.5941 68.9084 40.5941 70.769C40.5941 72.6295 39.0718 74.2871 37.2112 74.2871ZM61.3647 64.7475C60.4852 64.7475 59.6394 64.4092 58.9629 63.7665L58.5231 63.3267C57.2038 62.0074 57.2038 59.8762 58.5231 58.5569C59.8424 57.2376 61.9736 57.2376 63.2929 58.5569L63.7327 58.9967C65.052 60.316 65.052 62.4472 63.7327 63.7665C63.0899 64.4092 62.2442 64.7475 61.3647 64.7475ZM13.0578 64.7475C12.1782 64.7475 11.3325 64.4092 10.6559 63.7665C9.33663 62.4472 9.33663 60.316 10.6559 58.9967L11.0957 58.5569C12.415 57.2376 14.5462 57.2376 15.8655 58.5569C17.1848 59.8762 17.1848 62.0074 15.8655 63.3267L15.4257 63.7665C14.783 64.4092 13.9035 64.7475 13.0578 64.7475ZM71.0396 40.5941H70.769C68.9084 40.5941 67.3861 39.0718 67.3861 37.2112C67.3861 35.3507 68.9084 33.8284 70.769 33.8284C72.6295 33.8284 74.2871 35.3507 74.2871 37.2112C74.2871 39.0718 72.9002 40.5941 71.0396 40.5941ZM3.65347 40.5941H3.38284C1.52228 40.5941 0 39.0718 0 37.2112C0 35.3507 1.52228 33.8284 3.38284 33.8284C5.2434 33.8284 6.90099 35.3507 6.90099 37.2112C6.90099 39.0718 5.51403 40.5941 3.65347 40.5941ZM60.9249 16.8804C60.0454 16.8804 59.1997 16.5421 58.5231 15.8993C57.2038 14.58 57.2038 12.4488 58.5231 11.1295L58.9629 10.6898C60.2822 9.37046 62.4134 9.37046 63.7327 10.6898C65.052 12.0091 65.052 14.1403 63.7327 15.4596L63.2929 15.8993C62.6502 16.5421 61.8045 16.8804 60.9249 16.8804ZM13.4975 16.8804C12.618 16.8804 11.7723 16.5421 11.0957 15.8993L10.6559 15.4257C9.33663 14.1064 9.33663 11.9752 10.6559 10.6559C11.9752 9.33663 14.1064 9.33663 15.4257 10.6559L15.8655 11.0957C17.1848 12.415 17.1848 14.5462 15.8655 15.8655C15.2228 16.5421 14.3432 16.8804 13.4975 16.8804ZM37.2112 6.90099C35.3507 6.90099 33.8284 5.51403 33.8284 3.65347V3.38284C33.8284 1.52228 35.3507 0 37.2112 0C39.0718 0 40.5941 1.52228 40.5941 3.38284C40.5941 5.2434 39.0718 6.90099 37.2112 6.90099Z" fill="currentColor"/>
</svg>
