<svg width="75" height="75" viewBox="0 0 75 75" fill="none" xmlns="http://www.w3.org/2000/svg">
<path d="M35.4194 70.8388C15.8955 70.8388 0 54.9433 0 35.4194C0 15.8955 15.8955 0 35.4194 0C54.9433 0 70.8388 15.8955 70.8388 35.4194C70.8388 54.9433 54.9433 70.8388 35.4194 70.8388ZM35.4194 5.18333C18.7291 5.18333 5.18333 18.7637 5.18333 35.4194C5.18333 52.0752 18.7291 65.6555 35.4194 65.6555C52.1097 65.6555 65.6555 52.0752 65.6555 35.4194C65.6555 18.7637 52.1097 5.18333 35.4194 5.18333Z" fill="#292D32"/>
<path d="M71.7041 74.2941C71.0475 74.2941 70.391 74.0522 69.8726 73.5339L62.9615 66.6227C61.9594 65.6206 61.9594 63.962 62.9615 62.9599C63.9637 61.9578 65.6223 61.9578 66.6244 62.9599L73.5355 69.871C74.5376 70.8731 74.5376 72.5317 73.5355 73.5339C73.0172 74.0522 72.3607 74.2941 71.7041 74.2941Z" fill="#000000"/>
</svg>
